# xmcd
#
# Track frame offsets: 
#        150
#        15828
#        26043
#        39568
#        60956
#        85605
#        95879
#        112695
#        119302
#        132179
#        152087
#        170367
#        183426
#        199792
#        213079
#        234139
#        248308
#        266648
#        276237
#        290609
#        305866
#        323977
#
# Disc length: 4514 seconds
#
# Revision: 0
# Processed by: cddbd v1.5.2PL0 Copyright (c) Steve Scherf et al.
# Submitted via: ExactAudioCopy v1.0b3
#
DISCID=2211a016
DTITLE=John Denver - Top 40 John Denver
DYEAR=2016
DGENRE=Country
TTITLE0=Thank God I'm A Country Boy
TTITLE1=The Eagle And The Hawk (Live)
TTITLE2=Annie's Song
TTITLE3=Back Home Again
TTITLE4=Sweet Surrender
TTITLE5=Grandma's Feather Bed
TTITLE6=Matthew
TTITLE7=The Music Is You
TTITLE8=This Old Guitar
TTITLE9=I'd Rather Be A Cowboy (Lady's Chains)
TTITLE10=Farewell Andromeda (Welcome To My Morning)
TTITLE11=Follow Me
TTITLE12=Goodbye Again
TTITLE13=For Baby (For Bobbie)
TTITLE14=Rocky Mountain High
TTITLE15=Take Me Home, Country Roads
TTITLE16=Poems, Prayers and Promises
TTITLE17=I Guess He'd Rather Be In Colorado
TTITLE18=Starwood In Aspen
TTITLE19=Friends With You
TTITLE20=Leaving On A Jet Plane
TTITLE21=Rhymes and Reasons
EXTD=
EXTT0=
EXTT1=
EXTT2=
EXTT3=
EXTT4=
EXTT5=
EXTT6=
EXTT7=
EXTT8=
EXTT9=
EXTT10=
EXTT11=
EXTT12=
EXTT13=
EXTT14=
EXTT15=
EXTT16=
EXTT17=
EXTT18=
EXTT19=
EXTT20=
EXTT21=
PLAYORDER=
